<svg width="220" height="70" viewBox="0 0 220 70" fill="none" xmlns="http://www.w3.org/2000/svg">
<path d="M12.9047 23.7807H17.9712L26.8145 46.3496H21.6559L14.7164 27.3119H16.1288L9.12789 46.3496H4L12.9047 23.7807ZM11.7993 37.5984H19.0152L20.5812 41.8051H10.2026L11.7993 37.5984Z" fill="#4339AC"/>
<path d="M28.7161 28.8779C28.7161 27.7725 28.9413 26.7899 29.3916 25.9302C29.842 25.0704 30.4766 24.3949 31.2954 23.9036C32.1142 23.4123 33.0559 23.1666 34.1204 23.1666C34.6731 23.1666 35.1848 23.1871 35.6557 23.228C36.147 23.269 36.6178 23.3509 37.0681 23.4737V27.2505C36.4335 27.1072 35.7478 27.0356 35.0108 27.0356C34.4377 27.0356 33.9975 27.2096 33.6905 27.5576C33.3834 27.8851 33.2299 28.3764 33.2299 29.0315V46.3496H28.7161V28.8779ZM25.7991 30.3825H37.5901V34.1593H25.7991V30.3825Z" fill="#4339AC"/>
<path d="M46.1504 46.8102C44.4718 46.8102 42.957 46.452 41.6059 45.7355C40.2753 44.9985 39.2313 43.9852 38.4739 42.6956C37.7165 41.3855 37.3378 39.9218 37.3378 38.3046C37.3378 36.667 37.7165 35.2034 38.4739 33.9137C39.2313 32.6036 40.2753 31.5903 41.6059 30.8738C42.957 30.1369 44.4718 29.7684 46.1504 29.7684C47.829 29.7684 49.3335 30.1369 50.6641 30.8738C52.0152 31.5903 53.0694 32.6036 53.8269 33.9137C54.5843 35.2034 54.963 36.667 54.963 38.3046C54.963 39.9218 54.5843 41.3855 53.8269 42.6956C53.0694 43.9852 52.0152 44.9985 50.6641 45.7355C49.3335 46.452 47.829 46.8102 46.1504 46.8102ZM46.1504 42.6649C46.9283 42.6649 47.6243 42.4909 48.2384 42.1429C48.873 41.7744 49.3643 41.2627 49.7123 40.6076C50.0807 39.9525 50.265 39.1849 50.265 38.3046C50.265 37.4244 50.0807 36.6568 49.7123 36.0017C49.3643 35.3262 48.873 34.8144 48.2384 34.4664C47.6243 34.0979 46.9283 33.9137 46.1504 33.9137C45.3725 33.9137 44.6662 34.0979 44.0317 34.4664C43.4175 34.8144 42.9262 35.3262 42.5578 36.0017C42.2098 36.6568 42.0358 37.4244 42.0358 38.3046C42.0358 39.1849 42.2098 39.9525 42.5578 40.6076C42.9262 41.2627 43.4175 41.7744 44.0317 42.1429C44.6662 42.4909 45.3725 42.6649 46.1504 42.6649Z" fill="#4339AC"/>
<path d="M55.9362 30.3825H60.45V34.6813L59.6516 34.927C59.9587 33.5964 60.3681 32.5626 60.8799 31.8257C61.4121 31.0888 61.9648 30.5872 62.538 30.3211C63.1112 30.055 63.7048 29.9219 64.3189 29.9219C64.9945 29.9219 65.5881 30.0243 66.0999 30.229V34.6199C65.67 34.4766 65.281 34.3743 64.933 34.3129C64.6055 34.2515 64.2268 34.2208 63.7969 34.2208C62.7529 34.2208 61.9341 34.6302 61.3405 35.449C60.7468 36.2474 60.45 37.3221 60.45 38.6731V46.3496H55.9362V30.3825Z" fill="#4339AC"/>
<path d="M74.521 46.8102C72.8424 46.8102 71.3276 46.452 69.9765 45.7355C68.6459 44.9985 67.6019 43.9852 66.8445 42.6956C66.0871 41.3855 65.7084 39.9218 65.7084 38.3046C65.7084 36.667 66.0871 35.2034 66.8445 33.9137C67.6019 32.6036 68.6459 31.5903 69.9765 30.8738C71.3276 30.1369 72.8424 29.7684 74.521 29.7684C76.1996 29.7684 77.7042 30.1369 79.0347 30.8738C80.3858 31.5903 81.44 32.6036 82.1974 33.9137C82.9549 35.2034 83.3336 36.667 83.3336 38.3046C83.3336 39.9218 82.9549 41.3855 82.1974 42.6956C81.44 43.9852 80.3858 44.9985 79.0347 45.7355C77.7042 46.452 76.1996 46.8102 74.521 46.8102ZM74.521 42.6649C75.2989 42.6649 75.9949 42.4909 76.609 42.1429C77.2436 41.7744 77.7349 41.2627 78.0829 40.6076C78.4513 39.9525 78.6356 39.1849 78.6356 38.3046C78.6356 37.4244 78.4513 36.6568 78.0829 36.0017C77.7349 35.3262 77.2436 34.8144 76.609 34.4664C75.9949 34.0979 75.2989 33.9137 74.521 33.9137C73.7431 33.9137 73.0368 34.0979 72.4023 34.4664C71.7881 34.8144 71.2968 35.3262 70.9284 36.0017C70.5804 36.6568 70.4064 37.4244 70.4064 38.3046C70.4064 39.1849 70.5804 39.9525 70.9284 40.6076C71.2968 41.2627 71.7881 41.7744 72.4023 42.1429C73.0368 42.4909 73.7431 42.6649 74.521 42.6649Z" fill="#4339AC"/>
</svg>
