<svg width="1215" height="48" viewBox="0 0 1215 48" fill="none" xmlns="http://www.w3.org/2000/svg">
<g clip-path="url(#clip0_172_1742)">
<mask id="path-1-inside-1_172_1742" fill="white">
<path d="M0 0H1215V48H0V0Z"/>
</mask>
<path d="M0 0H1215V48H0V0Z" fill="#F5F4F4"/>
<path d="M28.0002 28.6667L23.3335 24M23.3335 24L28.0002 19.3333M23.3335 24H32.6668" stroke="#726E6C" stroke-width="1.5" stroke-linecap="round" stroke-linejoin="round"/>
<path d="M49.049 28V19.6H54.161V20.428H50.057V23.38H53.549V24.196H50.057V28H49.049ZM55.5418 28V21.688H56.5498V28H55.5418ZM56.0458 20.488C55.8458 20.488 55.6778 20.424 55.5418 20.296C55.4138 20.16 55.3498 19.992 55.3498 19.792C55.3498 19.592 55.4138 19.432 55.5418 19.312C55.6778 19.184 55.8458 19.12 56.0458 19.12C56.2378 19.12 56.4018 19.184 56.5378 19.312C56.6738 19.432 56.7418 19.592 56.7418 19.792C56.7418 19.992 56.6738 20.16 56.5378 20.296C56.4018 20.424 56.2378 20.488 56.0458 20.488ZM58.3403 28V21.688H59.2523L59.3243 22.84C59.4683 22.552 59.6563 22.312 59.8883 22.12C60.1203 21.928 60.4003 21.784 60.7283 21.688C61.0643 21.592 61.4403 21.544 61.8563 21.544V22.6H61.2323C60.9923 22.6 60.7603 22.632 60.5363 22.696C60.3123 22.76 60.1083 22.864 59.9243 23.008C59.7483 23.152 59.6083 23.348 59.5043 23.596C59.4003 23.844 59.3483 24.156 59.3483 24.532V28H58.3403ZM65.2961 28.144C64.7281 28.144 64.2561 28.06 63.8801 27.892C63.5121 27.716 63.2321 27.476 63.0401 27.172C62.8481 26.86 62.7321 26.5 62.6921 26.092H63.7241C63.7561 26.308 63.8281 26.508 63.9401 26.692C64.0601 26.868 64.2321 27.012 64.4561 27.124C64.6801 27.236 64.9641 27.292 65.3081 27.292C65.5801 27.292 65.8121 27.252 66.0041 27.172C66.1961 27.084 66.3401 26.964 66.4361 26.812C66.5401 26.66 66.5921 26.484 66.5921 26.284C66.5921 26.02 66.5321 25.816 66.4121 25.672C66.3001 25.52 66.1321 25.408 65.9081 25.336C65.6921 25.256 65.4201 25.196 65.0921 25.156C64.7401 25.108 64.4281 25.04 64.1561 24.952C63.8841 24.864 63.6521 24.748 63.4601 24.604C63.2761 24.46 63.1361 24.28 63.0401 24.064C62.9441 23.848 62.8961 23.592 62.8961 23.296C62.8961 22.952 62.9881 22.648 63.1721 22.384C63.3561 22.12 63.6161 21.916 63.9521 21.772C64.2961 21.62 64.7001 21.544 65.1641 21.544C65.8441 21.544 66.3801 21.7 66.7721 22.012C67.1721 22.324 67.4081 22.768 67.4801 23.344H66.4841C66.4441 23.048 66.3081 22.816 66.0761 22.648C65.8441 22.48 65.5361 22.396 65.1521 22.396C64.7441 22.396 64.4361 22.472 64.2281 22.624C64.0201 22.776 63.9161 22.976 63.9161 23.224C63.9161 23.408 63.9601 23.576 64.0481 23.728C64.1441 23.872 64.3041 23.996 64.5281 24.1C64.7521 24.196 65.0521 24.268 65.4281 24.316C65.9001 24.372 66.3001 24.464 66.6281 24.592C66.9561 24.712 67.2041 24.9 67.3721 25.156C67.5481 25.412 67.6321 25.76 67.6241 26.2C67.6241 26.616 67.5241 26.968 67.3241 27.256C67.1321 27.544 66.8601 27.764 66.5081 27.916C66.1641 28.068 65.7601 28.144 65.2961 28.144ZM71.3 28C70.94 28 70.628 27.944 70.364 27.832C70.1 27.72 69.896 27.532 69.752 27.268C69.616 26.996 69.548 26.632 69.548 26.176V22.54H68.444V21.688H69.548L69.68 20.116H70.556V21.688H72.344V22.54H70.556V26.176C70.556 26.552 70.632 26.808 70.784 26.944C70.936 27.072 71.204 27.136 71.588 27.136H72.32V28H71.3Z" fill="#4A4442"/>
<mask id="mask0_172_1742" style="mask-type:alpha" maskUnits="userSpaceOnUse" x="82" y="16" width="8" height="16">
<rect x="82.5" y="31.1429" width="14.2857" height="7" transform="rotate(-90 82.5 31.1429)" fill="#D9D9D9"/>
</mask>
<g mask="url(#mask0_172_1742)">
<path d="M87.5106 24.5433L84.6115 27.4424C84.5715 27.4824 84.5268 27.5139 84.4775 27.5369C84.4282 27.5599 84.3753 27.5714 84.319 27.5714C84.2062 27.5714 84.1083 27.5333 84.0251 27.4571C83.942 27.3808 83.9004 27.2804 83.9004 27.1556V21.048C83.9004 20.9233 83.9424 20.8228 84.0263 20.7466C84.1103 20.6703 84.2082 20.6322 84.3202 20.6322C84.3482 20.6322 84.4453 20.6753 84.6117 20.7614L87.5106 23.6604C87.5773 23.727 87.6259 23.7959 87.6566 23.867C87.6873 23.9382 87.7026 24.0165 87.7026 24.1018C87.7026 24.1872 87.6873 24.2654 87.6566 24.3366C87.6259 24.4077 87.5773 24.4766 87.5106 24.5433Z" fill="#9A9795"/>
</g>
<path d="M100.158 28V19.6H101.334L104.19 25.516L107.022 19.6H108.21V28H107.202V21.412L104.562 26.896H103.806L101.166 21.46V28H100.158ZM110.085 28V21.688H111.093V28H110.085ZM110.589 20.488C110.389 20.488 110.221 20.424 110.085 20.296C109.957 20.16 109.893 19.992 109.893 19.792C109.893 19.592 109.957 19.432 110.085 19.312C110.221 19.184 110.389 19.12 110.589 19.12C110.781 19.12 110.945 19.184 111.081 19.312C111.217 19.432 111.285 19.592 111.285 19.792C111.285 19.992 111.217 20.16 111.081 20.296C110.945 20.424 110.781 20.488 110.589 20.488ZM115.487 28.144C114.927 28.144 114.431 28 113.999 27.712C113.567 27.424 113.231 27.032 112.991 26.536C112.751 26.032 112.631 25.464 112.631 24.832C112.631 24.192 112.751 23.628 112.991 23.14C113.231 22.644 113.567 22.256 113.999 21.976C114.431 21.688 114.931 21.544 115.499 21.544C115.995 21.544 116.419 21.644 116.771 21.844C117.131 22.044 117.415 22.324 117.623 22.684V19.36H118.631V28H117.719L117.635 26.992C117.515 27.192 117.355 27.38 117.155 27.556C116.963 27.732 116.727 27.876 116.447 27.988C116.175 28.092 115.855 28.144 115.487 28.144ZM115.619 27.268C116.019 27.268 116.367 27.172 116.663 26.98C116.959 26.78 117.187 26.5 117.347 26.14C117.507 25.772 117.587 25.34 117.587 24.844C117.587 24.348 117.507 23.92 117.347 23.56C117.187 23.192 116.959 22.912 116.663 22.72C116.367 22.52 116.019 22.42 115.619 22.42C115.243 22.42 114.907 22.52 114.611 22.72C114.315 22.912 114.083 23.192 113.915 23.56C113.747 23.92 113.663 24.348 113.663 24.844C113.663 25.34 113.747 25.772 113.915 26.14C114.083 26.5 114.315 26.78 114.611 26.98C114.907 27.172 115.243 27.268 115.619 27.268ZM122.94 28.144C122.38 28.144 121.884 28 121.452 27.712C121.02 27.424 120.684 27.032 120.444 26.536C120.204 26.032 120.084 25.464 120.084 24.832C120.084 24.192 120.204 23.628 120.444 23.14C120.684 22.644 121.02 22.256 121.452 21.976C121.884 21.688 122.384 21.544 122.952 21.544C123.448 21.544 123.872 21.644 124.224 21.844C124.584 22.044 124.868 22.324 125.076 22.684V19.36H126.084V28H125.172L125.088 26.992C124.968 27.192 124.808 27.38 124.608 27.556C124.416 27.732 124.18 27.876 123.9 27.988C123.628 28.092 123.308 28.144 122.94 28.144ZM123.072 27.268C123.472 27.268 123.82 27.172 124.116 26.98C124.412 26.78 124.64 26.5 124.8 26.14C124.96 25.772 125.04 25.34 125.04 24.844C125.04 24.348 124.96 23.92 124.8 23.56C124.64 23.192 124.412 22.912 124.116 22.72C123.82 22.52 123.472 22.42 123.072 22.42C122.696 22.42 122.36 22.52 122.064 22.72C121.768 22.912 121.536 23.192 121.368 23.56C121.2 23.92 121.116 24.348 121.116 24.844C121.116 25.34 121.2 25.772 121.368 26.14C121.536 26.5 121.768 26.78 122.064 26.98C122.36 27.172 122.696 27.268 123.072 27.268ZM127.79 28V19.36H128.798V28H127.79ZM133.113 28.144C132.553 28.144 132.057 28.008 131.625 27.736C131.193 27.464 130.853 27.08 130.605 26.584C130.365 26.088 130.245 25.508 130.245 24.844C130.245 24.18 130.365 23.6 130.605 23.104C130.853 22.608 131.193 22.224 131.625 21.952C132.065 21.68 132.569 21.544 133.137 21.544C133.745 21.544 134.253 21.68 134.661 21.952C135.069 22.224 135.377 22.588 135.585 23.044C135.793 23.5 135.897 24 135.897 24.544C135.897 24.624 135.897 24.704 135.897 24.784C135.897 24.864 135.893 24.96 135.885 25.072H131.001V24.292H134.913C134.897 23.676 134.717 23.208 134.373 22.888C134.037 22.56 133.617 22.396 133.113 22.396C132.777 22.396 132.465 22.48 132.177 22.648C131.897 22.808 131.669 23.048 131.493 23.368C131.317 23.688 131.229 24.088 131.229 24.568V24.904C131.229 25.432 131.317 25.876 131.493 26.236C131.669 26.588 131.897 26.852 132.177 27.028C132.465 27.204 132.777 27.292 133.113 27.292C133.561 27.292 133.913 27.208 134.169 27.04C134.425 26.864 134.613 26.616 134.733 26.296H135.729C135.633 26.648 135.465 26.964 135.225 27.244C134.993 27.524 134.697 27.744 134.337 27.904C133.985 28.064 133.577 28.144 133.113 28.144ZM141.824 28V20.728L140.096 21.28V20.488L142.16 19.6H142.844V28H141.824Z" fill="#4A4442"/>
<mask id="mask1_172_1742" style="mask-type:alpha" maskUnits="userSpaceOnUse" x="153" y="16" width="8" height="16">
<rect x="153.5" y="31.1429" width="14.2857" height="7" transform="rotate(-90 153.5 31.1429)" fill="#D9D9D9"/>
</mask>
<g mask="url(#mask1_172_1742)">
<path d="M158.511 24.5433L155.611 27.4424C155.571 27.4824 155.527 27.5139 155.478 27.5369C155.428 27.5599 155.375 27.5714 155.319 27.5714C155.206 27.5714 155.108 27.5333 155.025 27.4571C154.942 27.3808 154.9 27.2804 154.9 27.1556V21.048C154.9 20.9233 154.942 20.8228 155.026 20.7466C155.11 20.6703 155.208 20.6322 155.32 20.6322C155.348 20.6322 155.445 20.6753 155.612 20.7614L158.511 23.6604C158.577 23.727 158.626 23.7959 158.657 23.867C158.687 23.9382 158.703 24.0165 158.703 24.1018C158.703 24.1872 158.687 24.2654 158.657 24.3366C158.626 24.4077 158.577 24.4766 158.511 24.5433Z" fill="#9A9795"/>
</g>
<path d="M171.176 28V19.6H172.352L175.208 25.516L178.04 19.6H179.228V28H178.22V21.412L175.58 26.896H174.824L172.184 21.46V28H171.176ZM181.102 28V21.688H182.11V28H181.102ZM181.606 20.488C181.406 20.488 181.238 20.424 181.102 20.296C180.974 20.16 180.91 19.992 180.91 19.792C180.91 19.592 180.974 19.432 181.102 19.312C181.238 19.184 181.406 19.12 181.606 19.12C181.798 19.12 181.962 19.184 182.098 19.312C182.234 19.432 182.302 19.592 182.302 19.792C182.302 19.992 182.234 20.16 182.098 20.296C181.962 20.424 181.798 20.488 181.606 20.488ZM186.505 28.144C185.945 28.144 185.449 28 185.017 27.712C184.585 27.424 184.249 27.032 184.009 26.536C183.769 26.032 183.649 25.464 183.649 24.832C183.649 24.192 183.769 23.628 184.009 23.14C184.249 22.644 184.585 22.256 185.017 21.976C185.449 21.688 185.949 21.544 186.517 21.544C187.013 21.544 187.437 21.644 187.789 21.844C188.149 22.044 188.433 22.324 188.641 22.684V19.36H189.649V28H188.737L188.653 26.992C188.533 27.192 188.373 27.38 188.173 27.556C187.981 27.732 187.745 27.876 187.465 27.988C187.193 28.092 186.873 28.144 186.505 28.144ZM186.637 27.268C187.037 27.268 187.385 27.172 187.681 26.98C187.977 26.78 188.205 26.5 188.365 26.14C188.525 25.772 188.605 25.34 188.605 24.844C188.605 24.348 188.525 23.92 188.365 23.56C188.205 23.192 187.977 22.912 187.681 22.72C187.385 22.52 187.037 22.42 186.637 22.42C186.261 22.42 185.925 22.52 185.629 22.72C185.333 22.912 185.101 23.192 184.933 23.56C184.765 23.92 184.681 24.348 184.681 24.844C184.681 25.34 184.765 25.772 184.933 26.14C185.101 26.5 185.333 26.78 185.629 26.98C185.925 27.172 186.261 27.268 186.637 27.268ZM193.958 28.144C193.398 28.144 192.902 28 192.47 27.712C192.038 27.424 191.702 27.032 191.462 26.536C191.222 26.032 191.102 25.464 191.102 24.832C191.102 24.192 191.222 23.628 191.462 23.14C191.702 22.644 192.038 22.256 192.47 21.976C192.902 21.688 193.402 21.544 193.97 21.544C194.466 21.544 194.89 21.644 195.242 21.844C195.602 22.044 195.886 22.324 196.094 22.684V19.36H197.102V28H196.19L196.106 26.992C195.986 27.192 195.826 27.38 195.626 27.556C195.434 27.732 195.198 27.876 194.918 27.988C194.646 28.092 194.326 28.144 193.958 28.144ZM194.09 27.268C194.49 27.268 194.838 27.172 195.134 26.98C195.43 26.78 195.658 26.5 195.818 26.14C195.978 25.772 196.058 25.34 196.058 24.844C196.058 24.348 195.978 23.92 195.818 23.56C195.658 23.192 195.43 22.912 195.134 22.72C194.838 22.52 194.49 22.42 194.09 22.42C193.714 22.42 193.378 22.52 193.082 22.72C192.786 22.912 192.554 23.192 192.386 23.56C192.218 23.92 192.134 24.348 192.134 24.844C192.134 25.34 192.218 25.772 192.386 26.14C192.554 26.5 192.786 26.78 193.082 26.98C193.378 27.172 193.714 27.268 194.09 27.268ZM198.807 28V19.36H199.815V28H198.807ZM204.13 28.144C203.57 28.144 203.074 28.008 202.642 27.736C202.21 27.464 201.87 27.08 201.622 26.584C201.382 26.088 201.262 25.508 201.262 24.844C201.262 24.18 201.382 23.6 201.622 23.104C201.87 22.608 202.21 22.224 202.642 21.952C203.082 21.68 203.586 21.544 204.154 21.544C204.762 21.544 205.27 21.68 205.678 21.952C206.086 22.224 206.394 22.588 206.602 23.044C206.81 23.5 206.914 24 206.914 24.544C206.914 24.624 206.914 24.704 206.914 24.784C206.914 24.864 206.91 24.96 206.902 25.072H202.018V24.292H205.93C205.914 23.676 205.734 23.208 205.39 22.888C205.054 22.56 204.634 22.396 204.13 22.396C203.794 22.396 203.482 22.48 203.194 22.648C202.914 22.808 202.686 23.048 202.51 23.368C202.334 23.688 202.246 24.088 202.246 24.568V24.904C202.246 25.432 202.334 25.876 202.51 26.236C202.686 26.588 202.914 26.852 203.194 27.028C203.482 27.204 203.794 27.292 204.13 27.292C204.578 27.292 204.93 27.208 205.186 27.04C205.442 26.864 205.63 26.616 205.75 26.296H206.746C206.65 26.648 206.482 26.964 206.242 27.244C206.01 27.524 205.714 27.744 205.354 27.904C205.002 28.064 204.594 28.144 204.13 28.144ZM211.462 28V27.292C212.054 26.844 212.614 26.392 213.142 25.936C213.67 25.48 214.138 25.028 214.546 24.58C214.954 24.124 215.274 23.68 215.506 23.248C215.738 22.816 215.854 22.4 215.854 22C215.854 21.704 215.798 21.432 215.686 21.184C215.582 20.928 215.41 20.72 215.17 20.56C214.938 20.4 214.622 20.32 214.222 20.32C213.838 20.32 213.518 20.404 213.262 20.572C213.006 20.732 212.814 20.948 212.686 21.22C212.558 21.484 212.494 21.776 212.494 22.096H211.522C211.53 21.544 211.65 21.072 211.882 20.68C212.114 20.28 212.434 19.976 212.842 19.768C213.25 19.56 213.714 19.456 214.234 19.456C214.746 19.456 215.198 19.552 215.59 19.744C215.982 19.928 216.29 20.208 216.514 20.584C216.746 20.952 216.862 21.412 216.862 21.964C216.862 22.356 216.778 22.748 216.61 23.14C216.45 23.532 216.23 23.916 215.95 24.292C215.67 24.66 215.358 25.016 215.014 25.36C214.678 25.704 214.33 26.028 213.97 26.332C213.61 26.636 213.27 26.912 212.95 27.16H217.15V28H211.462Z" fill="#4A4442"/>
<mask id="mask2_172_1742" style="mask-type:alpha" maskUnits="userSpaceOnUse" x="227" y="16" width="8" height="16">
<rect x="227.5" y="31.1429" width="14.2857" height="7" transform="rotate(-90 227.5 31.1429)" fill="#D9D9D9"/>
</mask>
<g mask="url(#mask2_172_1742)">
<path d="M232.511 24.5433L229.611 27.4424C229.571 27.4824 229.527 27.5139 229.478 27.5369C229.428 27.5599 229.375 27.5714 229.319 27.5714C229.206 27.5714 229.108 27.5333 229.025 27.4571C228.942 27.3808 228.9 27.2804 228.9 27.1556V21.048C228.9 20.9233 228.942 20.8228 229.026 20.7466C229.11 20.6703 229.208 20.6322 229.32 20.6322C229.348 20.6322 229.445 20.6753 229.612 20.7614L232.511 23.6604C232.577 23.727 232.626 23.7959 232.657 23.867C232.687 23.9382 232.703 24.0165 232.703 24.1018C232.703 24.1872 232.687 24.2654 232.657 24.3366C232.626 24.4077 232.577 24.4766 232.511 24.5433Z" fill="#9A9795"/>
</g>
<path d="M245.123 28V19.6H246.299L249.155 25.516L251.987 19.6H253.175V28H252.167V21.412L249.527 26.896H248.771L246.131 21.46V28H245.123ZM255.05 28V21.688H256.058V28H255.05ZM255.554 20.488C255.354 20.488 255.186 20.424 255.05 20.296C254.922 20.16 254.858 19.992 254.858 19.792C254.858 19.592 254.922 19.432 255.05 19.312C255.186 19.184 255.354 19.12 255.554 19.12C255.746 19.12 255.91 19.184 256.046 19.312C256.182 19.432 256.25 19.592 256.25 19.792C256.25 19.992 256.182 20.16 256.046 20.296C255.91 20.424 255.746 20.488 255.554 20.488ZM260.452 28.144C259.892 28.144 259.396 28 258.964 27.712C258.532 27.424 258.196 27.032 257.956 26.536C257.716 26.032 257.596 25.464 257.596 24.832C257.596 24.192 257.716 23.628 257.956 23.14C258.196 22.644 258.532 22.256 258.964 21.976C259.396 21.688 259.896 21.544 260.464 21.544C260.96 21.544 261.384 21.644 261.736 21.844C262.096 22.044 262.38 22.324 262.588 22.684V19.36H263.596V28H262.684L262.6 26.992C262.48 27.192 262.32 27.38 262.12 27.556C261.928 27.732 261.692 27.876 261.412 27.988C261.14 28.092 260.82 28.144 260.452 28.144ZM260.584 27.268C260.984 27.268 261.332 27.172 261.628 26.98C261.924 26.78 262.152 26.5 262.312 26.14C262.472 25.772 262.552 25.34 262.552 24.844C262.552 24.348 262.472 23.92 262.312 23.56C262.152 23.192 261.924 22.912 261.628 22.72C261.332 22.52 260.984 22.42 260.584 22.42C260.208 22.42 259.872 22.52 259.576 22.72C259.28 22.912 259.048 23.192 258.88 23.56C258.712 23.92 258.628 24.348 258.628 24.844C258.628 25.34 258.712 25.772 258.88 26.14C259.048 26.5 259.28 26.78 259.576 26.98C259.872 27.172 260.208 27.268 260.584 27.268ZM267.905 28.144C267.345 28.144 266.849 28 266.417 27.712C265.985 27.424 265.649 27.032 265.409 26.536C265.169 26.032 265.049 25.464 265.049 24.832C265.049 24.192 265.169 23.628 265.409 23.14C265.649 22.644 265.985 22.256 266.417 21.976C266.849 21.688 267.349 21.544 267.917 21.544C268.413 21.544 268.837 21.644 269.189 21.844C269.549 22.044 269.833 22.324 270.041 22.684V19.36H271.049V28H270.137L270.053 26.992C269.933 27.192 269.773 27.38 269.573 27.556C269.381 27.732 269.145 27.876 268.865 27.988C268.593 28.092 268.273 28.144 267.905 28.144ZM268.037 27.268C268.437 27.268 268.785 27.172 269.081 26.98C269.377 26.78 269.605 26.5 269.765 26.14C269.925 25.772 270.005 25.34 270.005 24.844C270.005 24.348 269.925 23.92 269.765 23.56C269.605 23.192 269.377 22.912 269.081 22.72C268.785 22.52 268.437 22.42 268.037 22.42C267.661 22.42 267.325 22.52 267.029 22.72C266.733 22.912 266.501 23.192 266.333 23.56C266.165 23.92 266.081 24.348 266.081 24.844C266.081 25.34 266.165 25.772 266.333 26.14C266.501 26.5 266.733 26.78 267.029 26.98C267.325 27.172 267.661 27.268 268.037 27.268ZM272.754 28V19.36H273.762V28H272.754ZM278.077 28.144C277.517 28.144 277.021 28.008 276.589 27.736C276.157 27.464 275.817 27.08 275.569 26.584C275.329 26.088 275.209 25.508 275.209 24.844C275.209 24.18 275.329 23.6 275.569 23.104C275.817 22.608 276.157 22.224 276.589 21.952C277.029 21.68 277.533 21.544 278.101 21.544C278.709 21.544 279.217 21.68 279.625 21.952C280.033 22.224 280.341 22.588 280.549 23.044C280.757 23.5 280.861 24 280.861 24.544C280.861 24.624 280.861 24.704 280.861 24.784C280.861 24.864 280.857 24.96 280.849 25.072H275.965V24.292H279.877C279.861 23.676 279.681 23.208 279.337 22.888C279.001 22.56 278.581 22.396 278.077 22.396C277.741 22.396 277.429 22.48 277.141 22.648C276.861 22.808 276.633 23.048 276.457 23.368C276.281 23.688 276.193 24.088 276.193 24.568V24.904C276.193 25.432 276.281 25.876 276.457 26.236C276.633 26.588 276.861 26.852 277.141 27.028C277.429 27.204 277.741 27.292 278.077 27.292C278.525 27.292 278.877 27.208 279.133 27.04C279.389 26.864 279.577 26.616 279.697 26.296H280.693C280.597 26.648 280.429 26.964 280.189 27.244C279.957 27.524 279.661 27.744 279.301 27.904C278.949 28.064 278.541 28.144 278.077 28.144ZM288.193 28.144C287.657 28.144 287.169 28.048 286.729 27.856C286.297 27.656 285.953 27.36 285.697 26.968C285.441 26.576 285.305 26.088 285.289 25.504H286.309C286.317 25.824 286.393 26.12 286.537 26.392C286.689 26.656 286.905 26.868 287.185 27.028C287.465 27.188 287.801 27.268 288.193 27.268C288.585 27.268 288.913 27.192 289.177 27.04C289.441 26.888 289.641 26.688 289.777 26.44C289.913 26.184 289.981 25.9 289.981 25.588C289.981 25.212 289.885 24.908 289.693 24.676C289.509 24.436 289.257 24.26 288.937 24.148C288.625 24.028 288.281 23.968 287.905 23.968H287.281V23.116H287.905C288.473 23.116 288.917 22.988 289.237 22.732C289.565 22.468 289.729 22.104 289.729 21.64C289.729 21.264 289.601 20.952 289.345 20.704C289.089 20.456 288.705 20.332 288.193 20.332C287.689 20.332 287.293 20.468 287.005 20.74C286.717 21.012 286.553 21.36 286.513 21.784H285.493C285.517 21.328 285.641 20.924 285.865 20.572C286.097 20.22 286.409 19.948 286.801 19.756C287.201 19.556 287.665 19.456 288.193 19.456C288.753 19.456 289.221 19.552 289.597 19.744C289.981 19.936 290.269 20.192 290.461 20.512C290.653 20.832 290.749 21.188 290.749 21.58C290.749 21.868 290.693 22.144 290.581 22.408C290.477 22.672 290.317 22.9 290.101 23.092C289.885 23.284 289.609 23.42 289.273 23.5C289.601 23.564 289.893 23.688 290.149 23.872C290.413 24.056 290.621 24.292 290.773 24.58C290.925 24.868 291.001 25.204 291.001 25.588C291.001 26.044 290.893 26.468 290.677 26.86C290.469 27.244 290.157 27.556 289.741 27.796C289.325 28.028 288.809 28.144 288.193 28.144Z" fill="#4A4442"/>
<mask id="mask3_172_1742" style="mask-type:alpha" maskUnits="userSpaceOnUse" x="301" y="16" width="8" height="16">
<rect x="301.5" y="31.1429" width="14.2857" height="7" transform="rotate(-90 301.5 31.1429)" fill="#D9D9D9"/>
</mask>
<g mask="url(#mask3_172_1742)">
<path d="M306.511 24.5433L303.611 27.4424C303.571 27.4824 303.527 27.5139 303.478 27.5369C303.428 27.5599 303.375 27.5714 303.319 27.5714C303.206 27.5714 303.108 27.5333 303.025 27.4571C302.942 27.3808 302.9 27.2804 302.9 27.1556V21.048C302.9 20.9233 302.942 20.8228 303.026 20.7466C303.11 20.6703 303.208 20.6322 303.32 20.6322C303.348 20.6322 303.445 20.6753 303.612 20.7614L306.511 23.6604C306.577 23.727 306.626 23.7959 306.657 23.867C306.687 23.9382 306.703 24.0165 306.703 24.1018C306.703 24.1872 306.687 24.2654 306.657 24.3366C306.626 24.4077 306.577 24.4766 306.511 24.5433Z" fill="#9A9795"/>
</g>
<path d="M319.024 28V19.6H320.2L323.056 25.516L325.888 19.6H327.076V28H326.068V21.412L323.428 26.896H322.672L320.032 21.46V28H319.024ZM328.95 28V21.688H329.958V28H328.95ZM329.454 20.488C329.254 20.488 329.086 20.424 328.95 20.296C328.822 20.16 328.758 19.992 328.758 19.792C328.758 19.592 328.822 19.432 328.95 19.312C329.086 19.184 329.254 19.12 329.454 19.12C329.646 19.12 329.81 19.184 329.946 19.312C330.082 19.432 330.15 19.592 330.15 19.792C330.15 19.992 330.082 20.16 329.946 20.296C329.81 20.424 329.646 20.488 329.454 20.488ZM334.352 28.144C333.792 28.144 333.296 28 332.864 27.712C332.432 27.424 332.096 27.032 331.856 26.536C331.616 26.032 331.496 25.464 331.496 24.832C331.496 24.192 331.616 23.628 331.856 23.14C332.096 22.644 332.432 22.256 332.864 21.976C333.296 21.688 333.796 21.544 334.364 21.544C334.86 21.544 335.284 21.644 335.636 21.844C335.996 22.044 336.28 22.324 336.488 22.684V19.36H337.496V28H336.584L336.5 26.992C336.38 27.192 336.22 27.38 336.02 27.556C335.828 27.732 335.592 27.876 335.312 27.988C335.04 28.092 334.72 28.144 334.352 28.144ZM334.484 27.268C334.884 27.268 335.232 27.172 335.528 26.98C335.824 26.78 336.052 26.5 336.212 26.14C336.372 25.772 336.452 25.34 336.452 24.844C336.452 24.348 336.372 23.92 336.212 23.56C336.052 23.192 335.824 22.912 335.528 22.72C335.232 22.52 334.884 22.42 334.484 22.42C334.108 22.42 333.772 22.52 333.476 22.72C333.18 22.912 332.948 23.192 332.78 23.56C332.612 23.92 332.528 24.348 332.528 24.844C332.528 25.34 332.612 25.772 332.78 26.14C332.948 26.5 333.18 26.78 333.476 26.98C333.772 27.172 334.108 27.268 334.484 27.268ZM341.806 28.144C341.246 28.144 340.75 28 340.318 27.712C339.886 27.424 339.55 27.032 339.31 26.536C339.07 26.032 338.95 25.464 338.95 24.832C338.95 24.192 339.07 23.628 339.31 23.14C339.55 22.644 339.886 22.256 340.318 21.976C340.75 21.688 341.25 21.544 341.818 21.544C342.314 21.544 342.738 21.644 343.09 21.844C343.45 22.044 343.734 22.324 343.942 22.684V19.36H344.95V28H344.038L343.954 26.992C343.834 27.192 343.674 27.38 343.474 27.556C343.282 27.732 343.046 27.876 342.766 27.988C342.494 28.092 342.174 28.144 341.806 28.144ZM341.938 27.268C342.338 27.268 342.686 27.172 342.982 26.98C343.278 26.78 343.506 26.5 343.666 26.14C343.826 25.772 343.906 25.34 343.906 24.844C343.906 24.348 343.826 23.92 343.666 23.56C343.506 23.192 343.278 22.912 342.982 22.72C342.686 22.52 342.338 22.42 341.938 22.42C341.562 22.42 341.226 22.52 340.93 22.72C340.634 22.912 340.402 23.192 340.234 23.56C340.066 23.92 339.982 24.348 339.982 24.844C339.982 25.34 340.066 25.772 340.234 26.14C340.402 26.5 340.634 26.78 340.93 26.98C341.226 27.172 341.562 27.268 341.938 27.268ZM346.655 28V19.36H347.663V28H346.655ZM351.978 28.144C351.418 28.144 350.922 28.008 350.49 27.736C350.058 27.464 349.718 27.08 349.47 26.584C349.23 26.088 349.11 25.508 349.11 24.844C349.11 24.18 349.23 23.6 349.47 23.104C349.718 22.608 350.058 22.224 350.49 21.952C350.93 21.68 351.434 21.544 352.002 21.544C352.61 21.544 353.118 21.68 353.526 21.952C353.934 22.224 354.242 22.588 354.45 23.044C354.658 23.5 354.762 24 354.762 24.544C354.762 24.624 354.762 24.704 354.762 24.784C354.762 24.864 354.758 24.96 354.75 25.072H349.866V24.292H353.778C353.762 23.676 353.582 23.208 353.238 22.888C352.902 22.56 352.482 22.396 351.978 22.396C351.642 22.396 351.33 22.48 351.042 22.648C350.762 22.808 350.534 23.048 350.358 23.368C350.182 23.688 350.094 24.088 350.094 24.568V24.904C350.094 25.432 350.182 25.876 350.358 26.236C350.534 26.588 350.762 26.852 351.042 27.028C351.33 27.204 351.642 27.292 351.978 27.292C352.426 27.292 352.778 27.208 353.034 27.04C353.29 26.864 353.478 26.616 353.598 26.296H354.594C354.498 26.648 354.33 26.964 354.09 27.244C353.858 27.524 353.562 27.744 353.202 27.904C352.85 28.064 352.442 28.144 351.978 28.144ZM363.281 28V26.2H359.021V25.42L363.101 19.6H364.277V25.312H365.525V26.2H364.277V28H363.281ZM360.137 25.312H363.329V20.716L360.137 25.312Z" fill="#4A4442"/>
<mask id="mask4_172_1742" style="mask-type:alpha" maskUnits="userSpaceOnUse" x="375" y="16" width="8" height="16">
<rect x="375.5" y="31.1429" width="14.2857" height="7" transform="rotate(-90 375.5 31.1429)" fill="#D9D9D9"/>
</mask>
<g mask="url(#mask4_172_1742)">
<path d="M380.511 24.5433L377.611 27.4424C377.571 27.4824 377.527 27.5139 377.478 27.5369C377.428 27.5599 377.375 27.5714 377.319 27.5714C377.206 27.5714 377.108 27.5333 377.025 27.4571C376.942 27.3808 376.9 27.2804 376.9 27.1556V21.048C376.9 20.9233 376.942 20.8228 377.026 20.7466C377.11 20.6703 377.208 20.6322 377.32 20.6322C377.348 20.6322 377.445 20.6753 377.612 20.7614L380.511 23.6604C380.577 23.727 380.626 23.7959 380.657 23.867C380.687 23.9382 380.703 24.0165 380.703 24.1018C380.703 24.1872 380.687 24.2654 380.657 24.3366C380.626 24.4077 380.577 24.4766 380.511 24.5433Z" fill="#9A9795"/>
</g>
<path d="M393.053 28V19.6H394.493V26.872H398.237V28H393.053ZM401.607 28.144C401.111 28.144 400.699 28.06 400.371 27.892C400.043 27.724 399.799 27.5 399.639 27.22C399.479 26.94 399.399 26.636 399.399 26.308C399.399 25.924 399.495 25.592 399.687 25.312C399.887 25.032 400.179 24.816 400.563 24.664C400.947 24.504 401.419 24.424 401.979 24.424H403.503C403.503 24.104 403.459 23.84 403.371 23.632C403.283 23.416 403.147 23.256 402.963 23.152C402.779 23.048 402.543 22.996 402.255 22.996C401.927 22.996 401.647 23.072 401.415 23.224C401.183 23.368 401.039 23.592 400.983 23.896H399.567C399.615 23.464 399.759 23.096 399.999 22.792C400.239 22.48 400.555 22.24 400.947 22.072C401.347 21.896 401.783 21.808 402.255 21.808C402.823 21.808 403.307 21.908 403.707 22.108C404.107 22.3 404.411 22.58 404.619 22.948C404.835 23.308 404.943 23.744 404.943 24.256V28H403.719L403.575 27.028C403.495 27.188 403.391 27.336 403.263 27.472C403.143 27.608 403.003 27.728 402.843 27.832C402.683 27.928 402.499 28.004 402.291 28.06C402.091 28.116 401.863 28.144 401.607 28.144ZM401.931 27.004C402.163 27.004 402.367 26.964 402.543 26.884C402.727 26.796 402.883 26.676 403.011 26.524C403.147 26.364 403.251 26.188 403.323 25.996C403.395 25.804 403.443 25.6 403.467 25.384V25.36H402.135C401.855 25.36 401.623 25.396 401.439 25.468C401.255 25.532 401.123 25.628 401.043 25.756C400.963 25.884 400.923 26.032 400.923 26.2C400.923 26.368 400.963 26.512 401.043 26.632C401.123 26.752 401.239 26.844 401.391 26.908C401.543 26.972 401.723 27.004 401.931 27.004ZM408.894 28.144C408.358 28.144 407.89 28.06 407.49 27.892C407.098 27.716 406.786 27.476 406.554 27.172C406.33 26.86 406.198 26.504 406.158 26.104H407.598C407.638 26.272 407.71 26.428 407.814 26.572C407.918 26.708 408.058 26.816 408.234 26.896C408.418 26.976 408.634 27.016 408.882 27.016C409.122 27.016 409.318 26.984 409.47 26.92C409.622 26.848 409.734 26.756 409.806 26.644C409.878 26.532 409.914 26.412 409.914 26.284C409.914 26.092 409.862 25.944 409.758 25.84C409.654 25.736 409.502 25.656 409.302 25.6C409.11 25.536 408.878 25.476 408.606 25.42C408.318 25.364 408.038 25.296 407.766 25.216C407.502 25.128 407.262 25.02 407.046 24.892C406.838 24.764 406.67 24.6 406.542 24.4C406.422 24.2 406.362 23.956 406.362 23.668C406.362 23.316 406.454 23 406.638 22.72C406.83 22.44 407.102 22.22 407.454 22.06C407.814 21.892 408.242 21.808 408.738 21.808C409.442 21.808 410.002 21.972 410.418 22.3C410.842 22.62 411.09 23.072 411.162 23.656H409.794C409.754 23.432 409.642 23.26 409.458 23.14C409.274 23.012 409.03 22.948 408.726 22.948C408.414 22.948 408.174 23.008 408.006 23.128C407.846 23.24 407.766 23.392 407.766 23.584C407.766 23.704 407.814 23.816 407.91 23.92C408.014 24.016 408.162 24.1 408.354 24.172C408.546 24.236 408.782 24.3 409.062 24.364C409.51 24.452 409.906 24.556 410.25 24.676C410.594 24.796 410.866 24.972 411.066 25.204C411.266 25.436 411.366 25.764 411.366 26.188C411.374 26.572 411.274 26.912 411.066 27.208C410.866 27.504 410.582 27.736 410.214 27.904C409.846 28.064 409.406 28.144 408.894 28.144ZM415.18 28C414.772 28 414.416 27.936 414.112 27.808C413.816 27.68 413.584 27.468 413.416 27.172C413.248 26.876 413.164 26.476 413.164 25.972V23.164H412.132V21.952H413.164L413.332 20.356H414.604V21.952H416.248V23.164H414.604V25.972C414.604 26.276 414.668 26.488 414.796 26.608C414.932 26.72 415.156 26.776 415.468 26.776H416.212V28H415.18Z" fill="#6D8836"/>
<g style="mix-blend-mode:plus-lighter" opacity="0.15" filter="url(#filter0_f_172_1742)">
<ellipse cx="420.5" rx="142.5" ry="28" fill="#423110"/>
</g>
<g style="mix-blend-mode:plus-lighter" opacity="0.15" filter="url(#filter1_f_172_1742)">
<ellipse cx="800.5" cy="8" rx="142.5" ry="28" fill="#423110"/>
</g>
<g style="mix-blend-mode:plus-lighter" opacity="0.15" filter="url(#filter2_f_172_1742)">
<ellipse cx="83" cy="36" rx="63" ry="28" fill="#423110"/>
</g>
</g>
<path d="M1215 48V47H0V48V49H1215V48Z" fill="#D7D5D5" mask="url(#path-1-inside-1_172_1742)"/>
<defs>
<filter id="filter0_f_172_1742" x="244.947" y="-61.0531" width="351.106" height="122.106" filterUnits="userSpaceOnUse" color-interpolation-filters="sRGB">
<feFlood flood-opacity="0" result="BackgroundImageFix"/>
<feBlend mode="normal" in="SourceGraphic" in2="BackgroundImageFix" result="shape"/>
<feGaussianBlur stdDeviation="16.5266" result="effect1_foregroundBlur_172_1742"/>
</filter>
<filter id="filter1_f_172_1742" x="624.947" y="-53.0531" width="351.106" height="122.106" filterUnits="userSpaceOnUse" color-interpolation-filters="sRGB">
<feFlood flood-opacity="0" result="BackgroundImageFix"/>
<feBlend mode="normal" in="SourceGraphic" in2="BackgroundImageFix" result="shape"/>
<feGaussianBlur stdDeviation="16.5266" result="effect1_foregroundBlur_172_1742"/>
</filter>
<filter id="filter2_f_172_1742" x="-13.0531" y="-25.0531" width="192.106" height="122.106" filterUnits="userSpaceOnUse" color-interpolation-filters="sRGB">
<feFlood flood-opacity="0" result="BackgroundImageFix"/>
<feBlend mode="normal" in="SourceGraphic" in2="BackgroundImageFix" result="shape"/>
<feGaussianBlur stdDeviation="16.5266" result="effect1_foregroundBlur_172_1742"/>
</filter>
<clipPath id="clip0_172_1742">
<path d="M0 0H1215V48H0V0Z" fill="white"/>
</clipPath>
</defs>
</svg>
