<svg width="18" height="19" viewBox="0 0 18 19" fill="none" xmlns="http://www.w3.org/2000/svg">
<g clip-path="url(#clip0_2588_1428)">
<path d="M9 14.4768H3C2.60218 14.4768 2.22064 14.3188 1.93934 14.0375C1.65804 13.7562 1.5 13.3746 1.5 12.9768V6.97681C1.5 6.57898 1.65804 6.19745 1.93934 5.91615C2.22064 5.63484 2.60218 5.47681 3 5.47681H15C15.3978 5.47681 15.7794 5.63484 16.0607 5.91615C16.342 6.19745 16.5 6.57898 16.5 6.97681V10.7268M13.5 9.97681H13.5075M14.25 17.4768V12.9768M14.25 12.9768L16.5 15.2268M14.25 12.9768L12 15.2268M4.5 9.97681H4.5075M10.5 9.97681C10.5 10.8052 9.82843 11.4768 9 11.4768C8.17157 11.4768 7.5 10.8052 7.5 9.97681C7.5 9.14838 8.17157 8.47681 9 8.47681C9.82843 8.47681 10.5 9.14838 10.5 9.97681Z" stroke="#4A4442" stroke-width="1.5" stroke-linecap="round" stroke-linejoin="round"/>
</g>
<defs>
<clipPath id="clip0_2588_1428">
<rect width="18" height="18" fill="white" transform="translate(0 0.976807)"/>
</clipPath>
</defs>
</svg>
